<?xml version="1.0" encoding="UTF-8" standalone="no"?>
<!DOCTYPE svg PUBLIC "-//W3C//DTD SVG 1.1//EN"
 "http://www.w3.org/Graphics/SVG/1.1/DTD/svg11.dtd">
<!-- Generated by graphviz version 12.2.1 (20241206.2353)
 -->
<!-- Title: MainGraph Pages: 1 -->
<svg width="2897pt" height="749pt"
 viewBox="0.00 0.00 2897.45 749.00" xmlns="http://www.w3.org/2000/svg" xmlns:xlink="http://www.w3.org/1999/xlink">
<g id="graph0" class="graph" transform="scale(1 1) rotate(0) translate(4 745)">
<title>MainGraph</title>
<polygon fill="white" stroke="none" points="-4,4 -4,-745 2893.45,-745 2893.45,4 -4,4"/>
<!-- Start -->
<g id="node1" class="node">
<title>Start</title>
<ellipse fill="none" stroke="black" cx="1884.84" cy="-723" rx="136.31" ry="18"/>
<text text-anchor="middle" x="1884.84" y="-717.95" font-family="Times,serif" font-size="14.00">Is this a Meal or Travel Expense?</text>
</g>
<!-- M2 -->
<g id="node2" class="node">
<title>M2</title>
<ellipse fill="none" stroke="black" cx="1683.84" cy="-652.5" rx="225.88" ry="18"/>
<text text-anchor="middle" x="1683.84" y="-647.45" font-family="Times,serif" font-size="14.00">Was the Expense Incurred During Government Business?</text>
</g>
<!-- Start&#45;&gt;M2 -->
<g id="edge1" class="edge">
<title>Start&#45;&gt;M2</title>
<path fill="none" stroke="black" d="M1836.95,-705.68C1809.23,-696.23 1774.08,-684.26 1744.46,-674.16"/>
<polygon fill="black" stroke="black" points="1745.84,-670.93 1735.25,-671.02 1743.58,-677.56 1745.84,-670.93"/>
<text text-anchor="middle" x="1814.63" y="-682.7" font-family="Times,serif" font-size="14.00">M</text>
</g>
<!-- T2 -->
<g id="node3" class="node">
<title>T2</title>
<ellipse fill="none" stroke="black" cx="2086.84" cy="-652.5" rx="159.34" ry="18"/>
<text text-anchor="middle" x="2086.84" y="-647.45" font-family="Times,serif" font-size="14.00">Is the Travel for Government Business?</text>
</g>
<!-- Start&#45;&gt;T2 -->
<g id="edge2" class="edge">
<title>Start&#45;&gt;T2</title>
<path fill="none" stroke="black" d="M1932.71,-705.77C1960.97,-696.18 1997,-683.97 2027.11,-673.76"/>
<polygon fill="black" stroke="black" points="2028.13,-677.11 2036.48,-670.58 2025.88,-670.48 2028.13,-677.11"/>
<text text-anchor="middle" x="2014" y="-682.7" font-family="Times,serif" font-size="14.00">T</text>
</g>
<!-- M3 -->
<g id="node4" class="node">
<title>M3</title>
<polygon fill="none" stroke="black" points="1532.09,-600 1241.59,-600 1241.59,-564 1532.09,-564 1532.09,-600"/>
<text text-anchor="middle" x="1386.84" y="-577.73" font-family="Times,serif" font-size="12.00">Is the Claimant Away from Office Area (At Least 24 km)?</text>
</g>
<!-- M2&#45;&gt;M3 -->
<g id="edge4" class="edge">
<title>M2&#45;&gt;M3</title>
<path fill="none" stroke="black" d="M1612.32,-635.01C1570.63,-625.39 1517.74,-613.19 1473.67,-603.03"/>
<polygon fill="black" stroke="black" points="1474.67,-599.67 1464.14,-600.83 1473.1,-606.49 1474.67,-599.67"/>
<text text-anchor="middle" x="1580.8" y="-612.2" font-family="Times,serif" font-size="14.00">Yes</text>
</g>
<!-- M17 -->
<g id="node14" class="node">
<title>M17</title>
<ellipse fill="lightcoral" stroke="black" cx="1692.84" cy="-582" rx="142.79" ry="18"/>
<text text-anchor="middle" x="1692.84" y="-577.73" font-family="Times,serif" font-size="12.00">Reject Claim (Not for government business)</text>
</g>
<!-- M2&#45;&gt;M17 -->
<g id="edge3" class="edge">
<title>M2&#45;&gt;M17</title>
<path fill="none" stroke="black" d="M1686.11,-634.21C1687.02,-627.27 1688.1,-619.07 1689.12,-611.3"/>
<polygon fill="black" stroke="black" points="1692.57,-611.91 1690.4,-601.54 1685.63,-611 1692.57,-611.91"/>
<text text-anchor="middle" x="1697.66" y="-612.2" font-family="Times,serif" font-size="14.00">No</text>
</g>
<!-- T3 -->
<g id="node20" class="node">
<title>T3</title>
<polygon fill="none" stroke="black" points="2175.71,-600 1987.96,-600 1987.96,-564 2175.71,-564 2175.71,-600"/>
<text text-anchor="middle" x="2081.84" y="-577.73" font-family="Times,serif" font-size="12.00">Is this a Regular Commute to Work?</text>
</g>
<!-- T2&#45;&gt;T3 -->
<g id="edge22" class="edge">
<title>T2&#45;&gt;T3</title>
<path fill="none" stroke="black" d="M2085.58,-634.21C2085.07,-627.27 2084.47,-619.07 2083.91,-611.3"/>
<polygon fill="black" stroke="black" points="2087.41,-611.27 2083.19,-601.55 2080.43,-611.78 2087.41,-611.27"/>
<text text-anchor="middle" x="2095.06" y="-612.2" font-family="Times,serif" font-size="14.00">Yes</text>
</g>
<!-- T22 -->
<g id="node33" class="node">
<title>T22</title>
<ellipse fill="lightcoral" stroke="black" cx="2336.84" cy="-582" rx="142.79" ry="18"/>
<text text-anchor="middle" x="2336.84" y="-577.73" font-family="Times,serif" font-size="12.00">Reject Claim (Not for government business)</text>
</g>
<!-- T2&#45;&gt;T22 -->
<g id="edge21" class="edge">
<title>T2&#45;&gt;T22</title>
<path fill="none" stroke="black" d="M2145.77,-635.35C2182.43,-625.31 2229.72,-612.35 2268.09,-601.84"/>
<polygon fill="black" stroke="black" points="2268.99,-605.22 2277.71,-599.2 2267.14,-598.47 2268.99,-605.22"/>
<text text-anchor="middle" x="2249.83" y="-612.2" font-family="Times,serif" font-size="14.00">No</text>
</g>
<!-- M4 -->
<g id="node5" class="node">
<title>M4</title>
<polygon fill="none" stroke="black" points="1352.21,-529.5 1191.46,-529.5 1191.46,-493.5 1352.21,-493.5 1352.21,-529.5"/>
<text text-anchor="middle" x="1271.84" y="-507.23" font-family="Times,serif" font-size="12.00">Was Prior Approval Obtained?</text>
</g>
<!-- M3&#45;&gt;M4 -->
<g id="edge5" class="edge">
<title>M3&#45;&gt;M4</title>
<path fill="none" stroke="black" d="M1357.52,-563.54C1343.33,-555.08 1326.09,-544.82 1310.81,-535.71"/>
<polygon fill="black" stroke="black" points="1312.79,-532.82 1302.4,-530.71 1309.2,-538.83 1312.79,-532.82"/>
<text text-anchor="middle" x="1351.27" y="-541.7" font-family="Times,serif" font-size="14.00">No</text>
</g>
<!-- M5 -->
<g id="node6" class="node">
<title>M5</title>
<polygon fill="none" stroke="black" points="1502.34,-459 1273.34,-459 1273.34,-423 1502.34,-423 1502.34,-459"/>
<text text-anchor="middle" x="1387.84" y="-436.73" font-family="Times,serif" font-size="12.00">Was the Meal Purchased (Receipt Provided)?</text>
</g>
<!-- M3&#45;&gt;M5 -->
<g id="edge6" class="edge">
<title>M3&#45;&gt;M5</title>
<path fill="none" stroke="black" d="M1386.96,-563.68C1387.13,-540.35 1387.43,-498.53 1387.63,-470.53"/>
<polygon fill="black" stroke="black" points="1391.13,-470.64 1387.71,-460.62 1384.13,-470.59 1391.13,-470.64"/>
<text text-anchor="middle" x="1397.58" y="-506.45" font-family="Times,serif" font-size="14.00">Yes</text>
</g>
<!-- M4&#45;&gt;M5 -->
<g id="edge8" class="edge">
<title>M4&#45;&gt;M5</title>
<path fill="none" stroke="black" d="M1301.41,-493.04C1315.73,-484.58 1333.11,-474.32 1348.53,-465.21"/>
<polygon fill="black" stroke="black" points="1350.19,-468.3 1357.02,-460.2 1346.63,-462.27 1350.19,-468.3"/>
<text text-anchor="middle" x="1353.77" y="-471.2" font-family="Times,serif" font-size="14.00">Yes</text>
</g>
<!-- M18 -->
<g id="node15" class="node">
<title>M18</title>
<ellipse fill="lightcoral" stroke="black" cx="1097.84" cy="-441" rx="157.57" ry="18"/>
<text text-anchor="middle" x="1097.84" y="-436.73" font-family="Times,serif" font-size="12.00">Reject Claim (Must be 24 km away or approved)</text>
</g>
<!-- M4&#45;&gt;M18 -->
<g id="edge7" class="edge">
<title>M4&#45;&gt;M18</title>
<path fill="none" stroke="black" d="M1227.48,-493.04C1204.15,-483.85 1175.39,-472.53 1150.88,-462.88"/>
<polygon fill="black" stroke="black" points="1152.31,-459.68 1141.72,-459.28 1149.75,-466.2 1152.31,-459.68"/>
<text text-anchor="middle" x="1213.79" y="-471.2" font-family="Times,serif" font-size="14.00">No</text>
</g>
<!-- M6 -->
<g id="node7" class="node">
<title>M6</title>
<polygon fill="none" stroke="black" points="1238.34,-388.5 1063.34,-388.5 1063.34,-352.5 1238.34,-352.5 1238.34,-388.5"/>
<text text-anchor="middle" x="1150.84" y="-366.23" font-family="Times,serif" font-size="12.00">Is Alcohol Included in the Claim?</text>
</g>
<!-- M5&#45;&gt;M6 -->
<g id="edge10" class="edge">
<title>M5&#45;&gt;M6</title>
<path fill="none" stroke="black" d="M1327.42,-422.54C1295.25,-413.24 1255.48,-401.74 1221.84,-392.02"/>
<polygon fill="black" stroke="black" points="1223.18,-388.77 1212.6,-389.35 1221.24,-395.49 1223.18,-388.77"/>
<text text-anchor="middle" x="1307.66" y="-400.7" font-family="Times,serif" font-size="14.00">Yes</text>
</g>
<!-- M19 -->
<g id="node16" class="node">
<title>M19</title>
<ellipse fill="lightcoral" stroke="black" cx="1387.84" cy="-370.5" rx="131.82" ry="18"/>
<text text-anchor="middle" x="1387.84" y="-366.23" font-family="Times,serif" font-size="12.00">Reject Claim (Meals must be purchased)</text>
</g>
<!-- M5&#45;&gt;M19 -->
<g id="edge9" class="edge">
<title>M5&#45;&gt;M19</title>
<path fill="none" stroke="black" d="M1387.84,-422.71C1387.84,-415.77 1387.84,-407.57 1387.84,-399.8"/>
<polygon fill="black" stroke="black" points="1391.34,-400.06 1387.84,-390.06 1384.34,-400.06 1391.34,-400.06"/>
<text text-anchor="middle" x="1396.09" y="-400.7" font-family="Times,serif" font-size="14.00">No</text>
</g>
<!-- M7 -->
<g id="node8" class="node">
<title>M7</title>
<polygon fill="none" stroke="black" points="1001.34,-318 754.34,-318 754.34,-282 1001.34,-282 1001.34,-318"/>
<text text-anchor="middle" x="877.84" y="-295.73" font-family="Times,serif" font-size="12.00">Is the Claimed Amount Within Allowable Rates?</text>
</g>
<!-- M6&#45;&gt;M7 -->
<g id="edge12" class="edge">
<title>M6&#45;&gt;M7</title>
<path fill="none" stroke="black" d="M1081.24,-352.04C1043.78,-342.64 997.38,-331 958.37,-321.21"/>
<polygon fill="black" stroke="black" points="959.33,-317.84 948.78,-318.8 957.62,-324.63 959.33,-317.84"/>
<text text-anchor="middle" x="1055.07" y="-330.2" font-family="Times,serif" font-size="14.00">No</text>
</g>
<!-- M20 -->
<g id="node17" class="node">
<title>M20</title>
<ellipse fill="lightcoral" stroke="black" cx="1151.84" cy="-300" rx="132.29" ry="18"/>
<text text-anchor="middle" x="1151.84" y="-295.73" font-family="Times,serif" font-size="12.00">Reject Claim (Alcohol not reimbursable)</text>
</g>
<!-- M6&#45;&gt;M20 -->
<g id="edge11" class="edge">
<title>M6&#45;&gt;M20</title>
<path fill="none" stroke="black" d="M1151.09,-352.21C1151.19,-345.27 1151.31,-337.07 1151.43,-329.3"/>
<polygon fill="black" stroke="black" points="1154.92,-329.61 1151.57,-319.56 1147.92,-329.5 1154.92,-329.61"/>
<text text-anchor="middle" x="1161.58" y="-330.2" font-family="Times,serif" font-size="14.00">Yes</text>
</g>
<!-- M8 -->
<g id="node9" class="node">
<title>M8</title>
<polygon fill="none" stroke="black" points="724.09,-247.5 463.59,-247.5 463.59,-211.5 724.09,-211.5 724.09,-247.5"/>
<text text-anchor="middle" x="593.84" y="-225.22" font-family="Times,serif" font-size="12.00">Is Itemized Receipt Provided for Exceeding Limits?</text>
</g>
<!-- M7&#45;&gt;M8 -->
<g id="edge14" class="edge">
<title>M7&#45;&gt;M8</title>
<path fill="none" stroke="black" d="M774.79,-281.51C761.64,-278.87 748.39,-276.02 735.84,-273 710.13,-266.82 682.18,-258.75 657.93,-251.31"/>
<polygon fill="black" stroke="black" points="659.1,-248.01 648.51,-248.39 657.03,-254.69 659.1,-248.01"/>
<text text-anchor="middle" x="804.84" y="-259.7" font-family="Times,serif" font-size="14.00">Exceeds Allowable Rates</text>
</g>
<!-- M21 -->
<g id="node12" class="node">
<title>M21</title>
<ellipse fill="lightblue" stroke="black" cx="877.84" cy="-229.5" rx="135.63" ry="18"/>
<text text-anchor="middle" x="877.84" y="-225.22" font-family="Times,serif" font-size="12.00">Approve Claim (Within Allowable Rates)</text>
</g>
<!-- M7&#45;&gt;M21 -->
<g id="edge13" class="edge">
<title>M7&#45;&gt;M21</title>
<path fill="none" stroke="black" d="M877.84,-281.71C877.84,-274.77 877.84,-266.57 877.84,-258.8"/>
<polygon fill="black" stroke="black" points="881.34,-259.06 877.84,-249.06 874.34,-259.06 881.34,-259.06"/>
<text text-anchor="middle" x="943.09" y="-259.7" font-family="Times,serif" font-size="14.00">Within Allowable Rates</text>
</g>
<!-- M9 -->
<g id="node10" class="node">
<title>M9</title>
<polygon fill="none" stroke="black" points="494.09,-177 371.59,-177 371.59,-141 494.09,-141 494.09,-177"/>
<text text-anchor="middle" x="432.84" y="-154.72" font-family="Times,serif" font-size="12.00">Is This a Group Meal?</text>
</g>
<!-- M8&#45;&gt;M9 -->
<g id="edge16" class="edge">
<title>M8&#45;&gt;M9</title>
<path fill="none" stroke="black" d="M552.8,-211.04C531.98,-202.18 506.49,-191.33 484.36,-181.92"/>
<polygon fill="black" stroke="black" points="485.77,-178.72 475.2,-178.02 483.03,-185.16 485.77,-178.72"/>
<text text-anchor="middle" x="542.62" y="-189.2" font-family="Times,serif" font-size="14.00">Yes</text>
</g>
<!-- M22 -->
<g id="node18" class="node">
<title>M22</title>
<ellipse fill="lightcoral" stroke="black" cx="642.84" cy="-159" rx="130.38" ry="18"/>
<text text-anchor="middle" x="642.84" y="-154.72" font-family="Times,serif" font-size="12.00">Reject Claim (Itemized receipt required)</text>
</g>
<!-- M8&#45;&gt;M22 -->
<g id="edge15" class="edge">
<title>M8&#45;&gt;M22</title>
<path fill="none" stroke="black" d="M606.2,-211.21C611.58,-203.69 618.01,-194.71 623.96,-186.39"/>
<polygon fill="black" stroke="black" points="626.8,-188.44 629.77,-178.27 621.1,-184.37 626.8,-188.44"/>
<text text-anchor="middle" x="632.42" y="-189.2" font-family="Times,serif" font-size="14.00">No</text>
</g>
<!-- M10 -->
<g id="node11" class="node">
<title>M10</title>
<polygon fill="none" stroke="black" points="467.59,-106.5 258.09,-106.5 258.09,-70.5 467.59,-70.5 467.59,-106.5"/>
<text text-anchor="middle" x="362.84" y="-84.22" font-family="Times,serif" font-size="12.00">Claimed by Most Senior Person Present?</text>
</g>
<!-- M9&#45;&gt;M10 -->
<g id="edge17" class="edge">
<title>M9&#45;&gt;M10</title>
<path fill="none" stroke="black" d="M415.18,-140.71C407.07,-132.79 397.31,-123.23 388.42,-114.54"/>
<polygon fill="black" stroke="black" points="390.93,-112.09 381.34,-107.6 386.04,-117.1 390.93,-112.09"/>
<text text-anchor="middle" x="416.29" y="-118.7" font-family="Times,serif" font-size="14.00">Yes</text>
</g>
<!-- M21_Limits -->
<g id="node13" class="node">
<title>M21_Limits</title>
<ellipse fill="lightblue" stroke="black" cx="503.84" cy="-18" rx="140.4" ry="18"/>
<text text-anchor="middle" x="503.84" y="-13.72" font-family="Times,serif" font-size="12.00">Approve Claim (Exceeds Allowable Rates)</text>
</g>
<!-- M9&#45;&gt;M21_Limits -->
<g id="edge18" class="edge">
<title>M9&#45;&gt;M21_Limits</title>
<path fill="none" stroke="black" d="M450.7,-140.77C459.6,-131.35 469.92,-119.07 476.84,-106.5 487.04,-87.97 493.93,-65.06 498.2,-47.33"/>
<polygon fill="black" stroke="black" points="501.57,-48.27 500.35,-37.74 494.75,-46.73 501.57,-48.27"/>
<text text-anchor="middle" x="500" y="-83.45" font-family="Times,serif" font-size="14.00">No</text>
</g>
<!-- M10&#45;&gt;M21_Limits -->
<g id="edge20" class="edge">
<title>M10&#45;&gt;M21_Limits</title>
<path fill="none" stroke="black" d="M398.78,-70.04C417.18,-61.1 439.75,-50.14 459.25,-40.66"/>
<polygon fill="black" stroke="black" points="460.59,-43.9 468.06,-36.38 457.53,-37.61 460.59,-43.9"/>
<text text-anchor="middle" x="460.24" y="-48.2" font-family="Times,serif" font-size="14.00">Yes</text>
</g>
<!-- M23 -->
<g id="node19" class="node">
<title>M23</title>
<ellipse fill="lightcoral" stroke="black" cx="172.84" cy="-18" rx="172.84" ry="18"/>
<text text-anchor="middle" x="172.84" y="-13.72" font-family="Times,serif" font-size="12.00">Reject Claim (Only senior person claims group meals)</text>
</g>
<!-- M10&#45;&gt;M23 -->
<g id="edge19" class="edge">
<title>M10&#45;&gt;M23</title>
<path fill="none" stroke="black" d="M314.4,-70.04C288.7,-60.77 256.95,-49.32 230.04,-39.62"/>
<polygon fill="black" stroke="black" points="231.24,-36.33 220.65,-36.24 228.87,-42.92 231.24,-36.33"/>
<text text-anchor="middle" x="298.69" y="-48.2" font-family="Times,serif" font-size="14.00">No</text>
</g>
<!-- T4 -->
<g id="node21" class="node">
<title>T4</title>
<polygon fill="none" stroke="black" points="2080.59,-529.5 1919.09,-529.5 1919.09,-493.5 2080.59,-493.5 2080.59,-529.5"/>
<text text-anchor="middle" x="1999.84" y="-507.23" font-family="Times,serif" font-size="12.00">Was the Travel Pre&#45;Approved?</text>
</g>
<!-- T3&#45;&gt;T4 -->
<g id="edge24" class="edge">
<title>T3&#45;&gt;T4</title>
<path fill="none" stroke="black" d="M2061.15,-563.71C2051.44,-555.6 2039.69,-545.79 2029.09,-536.94"/>
<polygon fill="black" stroke="black" points="2031.6,-534.48 2021.69,-530.75 2027.12,-539.85 2031.6,-534.48"/>
<text text-anchor="middle" x="2058.85" y="-541.7" font-family="Times,serif" font-size="14.00">No</text>
</g>
<!-- T23 -->
<g id="node34" class="node">
<title>T23</title>
<ellipse fill="lightcoral" stroke="black" cx="2250.84" cy="-511.5" rx="152.33" ry="18"/>
<text text-anchor="middle" x="2250.84" y="-507.23" font-family="Times,serif" font-size="12.00">Reject Claim (Regular Commute Not Covered)</text>
</g>
<!-- T3&#45;&gt;T23 -->
<g id="edge23" class="edge">
<title>T3&#45;&gt;T23</title>
<path fill="none" stroke="black" d="M2124.92,-563.54C2147.48,-554.39 2175.27,-543.13 2199,-533.51"/>
<polygon fill="black" stroke="black" points="2200.23,-536.79 2208.18,-529.79 2197.6,-530.3 2200.23,-536.79"/>
<text text-anchor="middle" x="2196.57" y="-541.7" font-family="Times,serif" font-size="14.00">Yes</text>
</g>
<!-- T11 -->
<g id="node28" class="node">
<title>T11</title>
<polygon fill="none" stroke="black" points="2295.46,-459 2130.21,-459 2130.21,-423 2295.46,-423 2295.46,-459"/>
<text text-anchor="middle" x="2212.84" y="-436.73" font-family="Times,serif" font-size="12.00">Is the Claim Timely Submitted?</text>
</g>
<!-- T4&#45;&gt;T11 -->
<g id="edge26" class="edge">
<title>T4&#45;&gt;T11</title>
<path fill="none" stroke="black" d="M2054.14,-493.04C2082.68,-483.86 2117.87,-472.54 2147.85,-462.9"/>
<polygon fill="black" stroke="black" points="2148.75,-466.29 2157.2,-459.89 2146.61,-459.62 2148.75,-466.29"/>
<text text-anchor="middle" x="2141.81" y="-471.2" font-family="Times,serif" font-size="14.00">Yes</text>
</g>
<!-- T24 -->
<g id="node35" class="node">
<title>T24</title>
<ellipse fill="lightcoral" stroke="black" cx="1978.84" cy="-441" rx="133.25" ry="18"/>
<text text-anchor="middle" x="1978.84" y="-436.73" font-family="Times,serif" font-size="12.00">Reject Claim (Travel Not Pre&#45;Approved)</text>
</g>
<!-- T4&#45;&gt;T24 -->
<g id="edge25" class="edge">
<title>T4&#45;&gt;T24</title>
<path fill="none" stroke="black" d="M1986.5,-493.24C1984.85,-490.44 1983.38,-487.48 1982.34,-484.5 1980.81,-480.14 1979.82,-475.39 1979.2,-470.69"/>
<polygon fill="black" stroke="black" points="1982.7,-470.57 1978.42,-460.88 1975.72,-471.13 1982.7,-470.57"/>
<text text-anchor="middle" x="1990.59" y="-471.2" font-family="Times,serif" font-size="14.00">No</text>
</g>
<!-- T5 -->
<g id="node22" class="node">
<title>T5</title>
<polygon fill="none" stroke="black" points="2188.34,-388.5 2037.34,-388.5 2037.34,-352.5 2188.34,-352.5 2188.34,-388.5"/>
<text text-anchor="middle" x="2112.84" y="-366.23" font-family="Times,serif" font-size="12.00">Is Documentation Provided?</text>
</g>
<!-- T6 -->
<g id="node23" class="node">
<title>T6</title>
<polygon fill="none" stroke="black" points="2014.09,-318 1723.59,-318 1723.59,-282 2014.09,-282 2014.09,-318"/>
<text text-anchor="middle" x="1868.84" y="-295.73" font-family="Times,serif" font-size="12.00">Is the Travel Type: Air, Rail, Vehicle, or Accommodation?</text>
</g>
<!-- T5&#45;&gt;T6 -->
<g id="edge30" class="edge">
<title>T5&#45;&gt;T6</title>
<path fill="none" stroke="black" d="M2050.64,-352.04C2017.51,-342.74 1976.57,-331.24 1941.94,-321.52"/>
<polygon fill="black" stroke="black" points="1942.96,-318.17 1932.39,-318.84 1941.07,-324.91 1942.96,-318.17"/>
<text text-anchor="middle" x="2029.99" y="-330.2" font-family="Times,serif" font-size="14.00">Yes</text>
</g>
<!-- T25 -->
<g id="node36" class="node">
<title>T25</title>
<ellipse fill="lightcoral" stroke="black" cx="2176.84" cy="-300" rx="144.7" ry="18"/>
<text text-anchor="middle" x="2176.84" y="-295.73" font-family="Times,serif" font-size="12.00">Reject Claim (Documentation Not Provided)</text>
</g>
<!-- T5&#45;&gt;T25 -->
<g id="edge29" class="edge">
<title>T5&#45;&gt;T25</title>
<path fill="none" stroke="black" d="M2128.99,-352.21C2136.32,-344.37 2145.14,-334.93 2153.2,-326.31"/>
<polygon fill="black" stroke="black" points="2155.61,-328.85 2159.88,-319.15 2150.5,-324.07 2155.61,-328.85"/>
<text text-anchor="middle" x="2160.7" y="-330.2" font-family="Times,serif" font-size="14.00">No</text>
</g>
<!-- T7 -->
<g id="node24" class="node">
<title>T7</title>
<polygon fill="none" stroke="black" points="2159.34,-247.5 1852.34,-247.5 1852.34,-211.5 2159.34,-211.5 2159.34,-247.5"/>
<text text-anchor="middle" x="2005.84" y="-225.22" font-family="Times,serif" font-size="12.00">Air Travel: Is it Economy Class or Approved Business Class?</text>
</g>
<!-- T6&#45;&gt;T7 -->
<g id="edge31" class="edge">
<title>T6&#45;&gt;T7</title>
<path fill="none" stroke="black" d="M1903.76,-281.54C1921.08,-272.88 1942.19,-262.33 1960.71,-253.07"/>
<polygon fill="black" stroke="black" points="1962.25,-256.21 1969.62,-248.61 1959.11,-249.95 1962.25,-256.21"/>
<text text-anchor="middle" x="1981.76" y="-259.7" font-family="Times,serif" font-size="14.00">Air Travel</text>
</g>
<!-- T8 -->
<g id="node25" class="node">
<title>T8</title>
<polygon fill="none" stroke="black" points="2637.21,-247.5 2326.46,-247.5 2326.46,-211.5 2637.21,-211.5 2637.21,-247.5"/>
<text text-anchor="middle" x="2481.84" y="-225.22" font-family="Times,serif" font-size="12.00">Rail Travel: Is it Economy Class or Approved Business Class?</text>
</g>
<!-- T6&#45;&gt;T8 -->
<g id="edge32" class="edge">
<title>T6&#45;&gt;T8</title>
<path fill="none" stroke="black" d="M2014.5,-282.72C2104.67,-272.65 2220.75,-259.68 2314.66,-249.18"/>
<polygon fill="black" stroke="black" points="2314.95,-252.67 2324.5,-248.08 2314.17,-245.71 2314.95,-252.67"/>
<text text-anchor="middle" x="2278.65" y="-259.7" font-family="Times,serif" font-size="14.00">Rail Travel</text>
</g>
<!-- T9 -->
<g id="node26" class="node">
<title>T9</title>
<polygon fill="none" stroke="black" points="1342.59,-247.5 1031.09,-247.5 1031.09,-211.5 1342.59,-211.5 1342.59,-247.5"/>
<text text-anchor="middle" x="1186.84" y="-225.22" font-family="Times,serif" font-size="12.00">Vehicle Travel: Is the Vehicle Properly Insured and Approved?</text>
</g>
<!-- T6&#45;&gt;T9 -->
<g id="edge33" class="edge">
<title>T6&#45;&gt;T9</title>
<path fill="none" stroke="black" d="M1723.37,-284.39C1615.19,-273.52 1467.35,-258.67 1354.25,-247.31"/>
<polygon fill="black" stroke="black" points="1354.87,-243.86 1344.57,-246.34 1354.17,-250.82 1354.87,-243.86"/>
<text text-anchor="middle" x="1648.36" y="-259.7" font-family="Times,serif" font-size="14.00">Vehicle Travel</text>
</g>
<!-- T10 -->
<g id="node27" class="node">
<title>T10</title>
<polygon fill="none" stroke="black" points="1834.59,-247.5 1529.09,-247.5 1529.09,-211.5 1834.59,-211.5 1834.59,-247.5"/>
<text text-anchor="middle" x="1681.84" y="-225.22" font-family="Times,serif" font-size="12.00">Accommodation: Is the Booking Economical and Approved?</text>
</g>
<!-- T6&#45;&gt;T10 -->
<g id="edge34" class="edge">
<title>T6&#45;&gt;T10</title>
<path fill="none" stroke="black" d="M1821.17,-281.54C1796.44,-272.48 1766.03,-261.34 1739.94,-251.78"/>
<polygon fill="black" stroke="black" points="1741.44,-248.6 1730.85,-248.45 1739.03,-255.18 1741.44,-248.6"/>
<text text-anchor="middle" x="1843.34" y="-259.7" font-family="Times,serif" font-size="14.00">Accommodation</text>
</g>
<!-- T21_Air -->
<g id="node29" class="node">
<title>T21_Air</title>
<ellipse fill="lightblue" stroke="black" cx="1973.84" cy="-159" rx="89.36" ry="18"/>
<text text-anchor="middle" x="1973.84" y="-154.72" font-family="Times,serif" font-size="12.00">Approve Air Travel Claim</text>
</g>
<!-- T7&#45;&gt;T21_Air -->
<g id="edge35" class="edge">
<title>T7&#45;&gt;T21_Air</title>
<path fill="none" stroke="black" d="M1980.66,-211.27C1978.24,-208.61 1976.12,-205.68 1974.59,-202.5 1972.56,-198.28 1971.5,-193.54 1971.04,-188.8"/>
<polygon fill="black" stroke="black" points="1974.54,-188.79 1970.96,-178.82 1967.54,-188.85 1974.54,-188.79"/>
<text text-anchor="middle" x="2095.71" y="-189.2" font-family="Times,serif" font-size="14.00">Economy Class or Approved Business Class</text>
</g>
<!-- T26 -->
<g id="node37" class="node">
<title>T26</title>
<ellipse fill="lightcoral" stroke="black" cx="2238.84" cy="-159" rx="132.29" ry="18"/>
<text text-anchor="middle" x="2238.84" y="-154.72" font-family="Times,serif" font-size="12.00">Reject Claim (Air Travel Not Approved)</text>
</g>
<!-- T7&#45;&gt;T26 -->
<g id="edge36" class="edge">
<title>T7&#45;&gt;T26</title>
<path fill="none" stroke="black" d="M2159.78,-219.19C2184.77,-215.39 2206.01,-210.04 2216.84,-202.5 2222.21,-198.76 2226.36,-193.3 2229.53,-187.54"/>
<polygon fill="black" stroke="black" points="2232.68,-189.06 2233.61,-178.5 2226.3,-186.18 2232.68,-189.06"/>
<text text-anchor="middle" x="2305.66" y="-189.2" font-family="Times,serif" font-size="14.00">Unapproved Business Class</text>
</g>
<!-- T21_Rail -->
<g id="node30" class="node">
<title>T21_Rail</title>
<ellipse fill="lightblue" stroke="black" cx="2481.84" cy="-159" rx="92.22" ry="18"/>
<text text-anchor="middle" x="2481.84" y="-154.72" font-family="Times,serif" font-size="12.00">Approve Rail Travel Claim</text>
</g>
<!-- T8&#45;&gt;T21_Rail -->
<g id="edge37" class="edge">
<title>T8&#45;&gt;T21_Rail</title>
<path fill="none" stroke="black" d="M2481.84,-211.21C2481.84,-204.27 2481.84,-196.07 2481.84,-188.3"/>
<polygon fill="black" stroke="black" points="2485.34,-188.56 2481.84,-178.56 2478.34,-188.56 2485.34,-188.56"/>
<text text-anchor="middle" x="2602.96" y="-189.2" font-family="Times,serif" font-size="14.00">Economy Class or Approved Business Class</text>
</g>
<!-- T27 -->
<g id="node38" class="node">
<title>T27</title>
<ellipse fill="lightcoral" stroke="black" cx="2746.84" cy="-159" rx="134.68" ry="18"/>
<text text-anchor="middle" x="2746.84" y="-154.72" font-family="Times,serif" font-size="12.00">Reject Claim (Rail Travel Not Approved)</text>
</g>
<!-- T8&#45;&gt;T27 -->
<g id="edge38" class="edge">
<title>T8&#45;&gt;T27</title>
<path fill="none" stroke="black" d="M2637.57,-223.32C2675.33,-219.51 2709.3,-213.13 2724.84,-202.5 2730.24,-198.81 2734.4,-193.36 2737.57,-187.6"/>
<polygon fill="black" stroke="black" points="2740.73,-189.11 2741.64,-178.56 2734.35,-186.24 2740.73,-189.11"/>
<text text-anchor="middle" x="2813.7" y="-189.2" font-family="Times,serif" font-size="14.00">Unapproved Business Class</text>
</g>
<!-- T21_Vehicle -->
<g id="node31" class="node">
<title>T21_Vehicle</title>
<ellipse fill="lightblue" stroke="black" cx="942.84" cy="-159" rx="102.24" ry="18"/>
<text text-anchor="middle" x="942.84" y="-154.72" font-family="Times,serif" font-size="12.00">Approve Vehicle Travel Claim</text>
</g>
<!-- T9&#45;&gt;T21_Vehicle -->
<g id="edge39" class="edge">
<title>T9&#45;&gt;T21_Vehicle</title>
<path fill="none" stroke="black" d="M1117.13,-211.03C1106.46,-208.24 1095.59,-205.34 1085.34,-202.5 1058.25,-194.99 1028.42,-186.18 1003.09,-178.54"/>
<polygon fill="black" stroke="black" points="1004.2,-175.22 993.61,-175.67 1002.17,-181.92 1004.2,-175.22"/>
<text text-anchor="middle" x="1134.09" y="-189.2" font-family="Times,serif" font-size="14.00">Approved Vehicle</text>
</g>
<!-- T28 -->
<g id="node39" class="node">
<title>T28</title>
<ellipse fill="lightcoral" stroke="black" cx="1186.84" cy="-159" rx="123.71" ry="18"/>
<text text-anchor="middle" x="1186.84" y="-154.72" font-family="Times,serif" font-size="12.00">Reject Claim (Vehicle Not Approved)</text>
</g>
<!-- T9&#45;&gt;T28 -->
<g id="edge40" class="edge">
<title>T9&#45;&gt;T28</title>
<path fill="none" stroke="black" d="M1186.84,-211.21C1186.84,-204.27 1186.84,-196.07 1186.84,-188.3"/>
<polygon fill="black" stroke="black" points="1190.34,-188.56 1186.84,-178.56 1183.34,-188.56 1190.34,-188.56"/>
<text text-anchor="middle" x="1241.96" y="-189.2" font-family="Times,serif" font-size="14.00">Unapproved Vehicle</text>
</g>
<!-- T21_Accommodation -->
<g id="node32" class="node">
<title>T21_Accommodation</title>
<ellipse fill="lightblue" stroke="black" cx="1436.84" cy="-159" rx="108.44" ry="18"/>
<text text-anchor="middle" x="1436.84" y="-154.72" font-family="Times,serif" font-size="12.00">Approve Accommodation Claim</text>
</g>
<!-- T10&#45;&gt;T21_Accommodation -->
<g id="edge41" class="edge">
<title>T10&#45;&gt;T21_Accommodation</title>
<path fill="none" stroke="black" d="M1575.82,-211.03C1564.44,-208.48 1553.1,-205.64 1542.34,-202.5 1522.37,-196.68 1500.98,-188.45 1482.71,-180.79"/>
<polygon fill="black" stroke="black" points="1484.31,-177.67 1473.74,-176.96 1481.56,-184.1 1484.31,-177.67"/>
<text text-anchor="middle" x="1616.59" y="-189.2" font-family="Times,serif" font-size="14.00">Approved Accommodation</text>
</g>
<!-- T29 -->
<g id="node40" class="node">
<title>T29</title>
<ellipse fill="lightcoral" stroke="black" cx="1714.84" cy="-159" rx="151.37" ry="18"/>
<text text-anchor="middle" x="1714.84" y="-154.72" font-family="Times,serif" font-size="12.00">Reject Claim (Accommodation Not Approved)</text>
</g>
<!-- T10&#45;&gt;T29 -->
<g id="edge42" class="edge">
<title>T10&#45;&gt;T29</title>
<path fill="none" stroke="black" d="M1690.17,-211.21C1693.67,-203.94 1697.83,-195.3 1701.73,-187.2"/>
<polygon fill="black" stroke="black" points="1704.79,-188.93 1705.97,-178.41 1698.48,-185.9 1704.79,-188.93"/>
<text text-anchor="middle" x="1782.89" y="-189.2" font-family="Times,serif" font-size="14.00">Unapproved Accommodation</text>
</g>
<!-- T11&#45;&gt;T5 -->
<g id="edge28" class="edge">
<title>T11&#45;&gt;T5</title>
<path fill="none" stroke="black" d="M2187.35,-422.54C2175.24,-414.24 2160.59,-404.21 2147.49,-395.23"/>
<polygon fill="black" stroke="black" points="2149.76,-392.55 2139.53,-389.79 2145.81,-398.32 2149.76,-392.55"/>
<text text-anchor="middle" x="2184.86" y="-400.7" font-family="Times,serif" font-size="14.00">Yes</text>
</g>
<!-- T30 -->
<g id="node41" class="node">
<title>T30</title>
<ellipse fill="lightcoral" stroke="black" cx="2312.84" cy="-370.5" rx="106.06" ry="18"/>
<text text-anchor="middle" x="2312.84" y="-366.23" font-family="Times,serif" font-size="12.00">Reject Claim (Late Submission)</text>
</g>
<!-- T11&#45;&gt;T30 -->
<g id="edge27" class="edge">
<title>T11&#45;&gt;T30</title>
<path fill="none" stroke="black" d="M2238.33,-422.54C2250.63,-414.12 2265.54,-403.9 2278.79,-394.82"/>
<polygon fill="black" stroke="black" points="2280.56,-397.85 2286.84,-389.31 2276.61,-392.08 2280.56,-397.85"/>
<text text-anchor="middle" x="2282.99" y="-400.7" font-family="Times,serif" font-size="14.00">No</text>
</g>
</g>
</svg>
